<svg xmlns="http://www.w3.org/2000/svg" viewBox="0 0 745.55 745.56"><defs><style>.cls-1{opacity:0.3;}.cls-2{fill:#19a5b7;opacity:0.4;}</style></defs><g id="Layer_2" data-name="Layer 2"><g id="Layer_1-2" data-name="Layer 1"><g class="cls-1"><path class="cls-2" d="M462.45,734.61a373,373,0,0,0,85.87-33.06l48.54-31a372.69,372.69,0,0,0,66.21-64Z"/><path class="cls-2" d="M365.94,745.49q17.94.35,35.64-1L697.64,555.64q8.7-15.48,16-31.93Z"/><path class="cls-2" d="M298.34,738q13.49,2.76,27,4.51L728,485.62q4.1-13,7.28-26.36Z"/><path class="cls-2" d="M243.39,722.33q11,4.06,22.34,7.46L741.64,426.24q1.73-11.73,2.65-23.4Z"/><path class="cls-2" d="M196.79,701.41q9.38,5,19.1,9.52L745.55,373.09q0-10.69-.58-21.33Z"/><path class="cls-2" d="M156.52,676.42q8.11,5.82,16.58,11.16L742.43,324.43c-.86-6.61-1.91-13.2-3.12-19.71Z"/><path class="cls-2" d="M121.51,648.12q7,6.45,14.42,12.51L733.66,279.38c-1.6-6.17-3.35-12.3-5.28-18.35Z"/><path class="cls-2" d="M91.1,616.87q6.08,7,12.5,13.75L720.07,237.41q-3.39-8.67-7.2-17.11Z"/><path class="cls-2" d="M65,582.88q5.14,7.59,10.68,14.89L702.07,198.2q-4.3-8.12-9-16Z"/><path class="cls-2" d="M42.91,546.28q4.28,8.13,9,16L679.93,161.69q-5.19-7.58-10.73-14.86Z"/><path class="cls-2" d="M25,507q3.34,8.65,7.14,17.15L653.65,127.78q-6.07-7-12.54-13.72Z"/><path class="cls-2" d="M11.58,465c1.57,6.19,3.32,12.32,5.21,18.38L623.15,96.6c-4.72-4.27-9.53-8.42-14.48-12.47Z"/><path class="cls-2" d="M3,419.81Q4.22,429.76,6,439.58L588,68.37q-8.15-5.78-16.63-11.1Z"/><path class="cls-2" d="M0,371Q0,381.77.5,392.43L547.55,43.5q-9.4-5-19.19-9.48Z"/><path class="cls-2" d="M4.15,317.73q-1.79,11.77-2.78,23.49L500.75,22.69q-11-4-22.47-7.38Z"/><path class="cls-2" d="M10.65,284.63,445.52,7.25q-13.57-2.73-27.16-4.39L18.12,258.16Q13.92,271.15,10.65,284.63Z"/><path class="cls-2" d="M32.8,219.86,377.44,0q-18.13-.25-36,1.24h0L49.12,187.73Q40.26,203.3,32.8,219.86Z"/><path class="cls-2" d="M84.87,136,279.44,11.87A374.16,374.16,0,0,0,84.87,136Z"/></g></g></g></svg>